# xmcd
#
# Track frame offsets: 
#        150
#        17628
#        37140
#        53740
#        77617
#        96716
#        125715
#        144256
#        162828
#        176708
#        200075
#        220431
#        246589
#        262199
#        289890
#        309597
#        327326
#        343714
#
# Disc length: 4777 seconds
#
# Revision: 0
# Processed by: cddbd v1.5.2PL0 Copyright (c) Steve Scherf et al.
# Submitted via: ExactAudioCopy v0.95a5
#
DISCID=2412a712
DTITLE=Various Artist - Akella Presents - Rockin' Blues  vol.28  CD1
DYEAR=2011
DGENRE=Blues
TTITLE0=Crazy In The Head - COYOTE KINGS
TTITLE1=No More - The ROCKY ATHAS GROUP
TTITLE2=The World Is Crazy - JOHN CAMPBELLJOHN
TTITLE3=Wrecking Ball - BLUE ON BLACK
TTITLE4=Big Blue Car - SCOTT ELLISON
TTITLE5=Say - EDDIE TURNER
TTITLE6=Skeletons In Your Closet - RICK FOWLER
TTITLE7=Living In The Lion's Den - DANNY BRYANT
TTITLE8=Shake It Down - DAVID ROTUNDO BAND
TTITLE9=I Been Cheated - LEW JETTON and 61 SOUTH
TTITLE10=Stand Still - TIM BROOKS and The ALIEN  SHARECROPPERS
TTITLE11=Love My Baby - DON GRIFFIN
TTITLE12=These Blues - BLUESBALL
TTITLE13=Never Saw It Coming - TEN YEARS AFTER
TTITLE14=Common Ground - The BEAT DADDYS
TTITLE15=Blue Words - Paul Black
TTITLE16=Middle of the Night - LOUIE JERGER and MARC TURNER
TTITLE17=Trouble On The Line - The HITMAN BLUES BAND
EXTD=
EXTT0=
EXTT1=
EXTT2=
EXTT3=
EXTT4=
EXTT5=
EXTT6=
EXTT7=
EXTT8=
EXTT9=
EXTT10=
EXTT11=
EXTT12=
EXTT13=
EXTT14=
EXTT15=
EXTT16=
EXTT17=
PLAYORDER=
